<svg xmlns="http://www.w3.org/2000/svg" viewBox="0 0 24 24" width="512" height="512">
  <defs>
    <linearGradient id="grad1" x1="0%" y1="0%" x2="100%" y2="100%">
      <stop offset="0%" style="stop-color:#075cab;stop-opacity:1" />
      <stop offset="100%" style="stop-color:#075cab;stop-opacity:1" />
    </linearGradient>
    <filter id="shadow" x="-20%" y="-20%" width="140%" height="140%">
      <feDropShadow dx="0.2" dy="0.4" stdDeviation="0.4" flood-color="#000000" flood-opacity="0.25"/>
    </filter>
  </defs>
  <g fill="none" stroke="url(#grad1)" stroke-width="0.6" stroke-linecap="round" stroke-linejoin="round" filter="url(#shadow)">
    <!-- Pencil Body -->
    <path d="M3 17.25V21h3.75L17.81 9.94l-3.75-3.75L3 17.25z" />
    <!-- Pencil Tip -->
    <path d="M20.71 7.04c.39-.39.39-1.02 0-1.41l-2.34-2.34a.9959.9959 0 0 0-1.41 0l-1.83 1.83 3.75 3.75 1.83-1.83z" />
    <!-- Plus Sign -->
    <path d="M23 18h-3v-3c0-.55-.45-1-1-1s-1 .45-1 1v3h-3c-.55 0-1 .45-1 1s.45 1 1 1h3v3c0 .55.45 1 1 1s1-.45 1-1v-3h3c.55 0 1-.45 1-1s-.45-1-1-1z" />
  </g>
</svg>